<?xml version="1.0" encoding="utf-8"?>
<!-- Generator: Adobe Illustrator 25.1.0, SVG Export Plug-In . SVG Version: 6.00 Build 0)  -->
<svg version="1.1" id="Layer_1" xmlns="http://www.w3.org/2000/svg" xmlns:xlink="http://www.w3.org/1999/xlink" x="0px" y="0px"
	 viewBox="0 0 50 50" style="enable-background:new 0 0 50 50;" xml:space="preserve">
<style type="text/css">
	.st0{fill-rule:evenodd;clip-rule:evenodd;fill:#F14D97;}
	.st1{fill-rule:evenodd;clip-rule:evenodd;fill:#9B9B9B;}
</style>
<g>
	<path class="st0" d="M31.78,6.18C41.39,7.02,49,15.15,49,24.96c0,10.37-8.49,18.86-18.86,18.86H19.86c4.71,0,8.57-3.86,8.57-8.57
		c0-4.71-3.86-8.57-8.57-8.57h-8.57L31.78,6.18z"/>
	<path class="st1" d="M7.86,30.11h10.29c3.77,0,6.86,3.09,6.86,6.86c0,3.77-3.09,6.86-6.86,6.86h-3.43c1.89,0,3.43-1.54,3.43-3.43
		c0-1.89-1.54-3.43-3.43-3.43H1L7.86,30.11z"/>
</g>
</svg>
