<?xml version="1.0" encoding="utf-8"?>
<!-- Generator: Adobe Illustrator 25.1.0, SVG Export Plug-In . SVG Version: 6.00 Build 0)  -->
<svg version="1.1" id="Layer_1" xmlns="http://www.w3.org/2000/svg" xmlns:xlink="http://www.w3.org/1999/xlink" x="0px" y="0px"
	 viewBox="0 0 135 42" style="enable-background:new 0 0 135 42;" xml:space="preserve">
<style type="text/css">
	.st0{fill-rule:evenodd;clip-rule:evenodd;fill:#F14D97;}
	.st1{fill-rule:evenodd;clip-rule:evenodd;fill:#9B9B9B;}
	.st2{fill:#F14D97;}
	.st3{fill:#9B9B9B;}
</style>
<path class="st0" d="M33.83,1c10.21,0.89,18.29,9.53,18.29,19.96C52.13,31.98,43.11,41,32.09,41H21.16c5.01,0,9.11-4.1,9.11-9.11
	c0-5.01-4.1-9.11-9.11-9.11h-9.11L33.83,1z"/>
<path class="st1" d="M8.41,26.43h10.93c4.01,0,7.29,3.28,7.29,7.29c0,4.01-3.28,7.29-7.29,7.29h-3.64c2,0,3.64-1.64,3.64-3.64
	c0-2-1.64-3.64-3.64-3.64H1.12L8.41,26.43z"/>
<path class="st2" d="M133.88,8.37l-4.37,8.46V21h-3.08v-4.17l-4.37-8.46h3.49l2.45,5.29l2.43-5.29H133.88z M120.83,8.37V21h-3.08
	v-7.58L114.93,21h-2.48l-2.84-7.59V21h-3.08V8.37h3.63l3.54,8.75l3.51-8.75H120.83z M98.77,11.77L95.66,21h-3.22l4.57-12.63h3.56
	L105.14,21h-3.26L98.77,11.77z M86.61,10.83v2.56h4.12v2.38h-4.12v2.77h4.66V21h-7.74V8.37h7.74v2.47H86.61z M74.88,14.05h1.91
	c0.56,0,0.99-0.14,1.27-0.41c0.28-0.28,0.42-0.67,0.42-1.17c0-0.48-0.14-0.86-0.42-1.13c-0.28-0.28-0.7-0.41-1.27-0.41h-1.91V14.05z
	 M78.24,21l-2.63-4.77h-0.74V21H71.8V8.37h5.16c1,0,1.84,0.17,2.55,0.52c0.7,0.35,1.23,0.82,1.57,1.43
	c0.35,0.61,0.52,1.28,0.52,2.02c0,0.84-0.24,1.59-0.71,2.25c-0.47,0.66-1.17,1.13-2.1,1.4l2.92,5H78.24z M63.25,18.34
	c1.16,0,2.07-0.32,2.72-0.95c0.65-0.64,0.97-1.54,0.97-2.7c0-1.16-0.32-2.07-0.97-2.72C65.32,11.32,64.41,11,63.25,11h-1.46v7.34
	H63.25z M63.45,8.37c1.33,0,2.5,0.26,3.49,0.79c1,0.53,1.77,1.27,2.31,2.22c0.55,0.95,0.82,2.05,0.82,3.3
	c0,1.24-0.27,2.33-0.82,3.29c-0.55,0.96-1.32,1.7-2.32,2.23c-1,0.53-2.16,0.79-3.48,0.79h-4.73V8.37H63.45z"/>
<path class="st3" d="M133.88,35.78h-1.64l-6.59-9.99v9.99h-1.64V23.22h1.64l6.59,9.97v-9.97h1.64V35.78z M116.57,25.33l-3.74,10.45
	h-1.73l4.53-12.47h1.89l4.52,12.47h-1.73L116.57,25.33z M105.39,34.44c0.82,0,1.45-0.19,1.91-0.58c0.46-0.38,0.68-0.92,0.68-1.6
	c0-0.7-0.24-1.24-0.72-1.65c-0.48-0.4-1.12-0.6-1.93-0.6h-2.84v4.43H105.39z M102.5,28.66h2.75c0.77,0,1.36-0.18,1.78-0.54
	c0.42-0.36,0.63-0.86,0.63-1.49c0-0.64-0.21-1.13-0.63-1.49c-0.42-0.36-1.03-0.54-1.82-0.54h-2.72V28.66z M107.14,29.32
	c0.46,0.07,0.87,0.26,1.25,0.56c0.38,0.3,0.68,0.67,0.9,1.12c0.22,0.44,0.33,0.92,0.33,1.42c0,0.64-0.16,1.21-0.49,1.72
	c-0.32,0.51-0.79,0.91-1.41,1.21c-0.62,0.29-1.35,0.44-2.19,0.44h-4.68V23.24h4.5c0.85,0,1.58,0.14,2.18,0.42
	c0.6,0.28,1.05,0.66,1.35,1.14c0.3,0.48,0.45,1.02,0.45,1.62c0,0.74-0.2,1.36-0.6,1.84C108.33,28.76,107.8,29.11,107.14,29.32z
	 M91.56,29.34h2.41c0.89,0,1.55-0.22,2-0.66c0.44-0.44,0.67-1.02,0.67-1.75c0-0.74-0.22-1.32-0.66-1.73
	c-0.44-0.41-1.11-0.61-2.01-0.61h-2.41V29.34z M96.52,35.78l-2.99-5.13h-1.98v5.13h-1.64V23.24h4.05c0.95,0,1.75,0.16,2.4,0.49
	c0.65,0.32,1.14,0.76,1.47,1.31c0.32,0.55,0.49,1.18,0.49,1.89c0,0.86-0.25,1.63-0.75,2.29c-0.5,0.66-1.24,1.1-2.24,1.31l3.15,5.25
	H96.52z M79.37,23.24v7.94c0,1.12,0.27,1.94,0.82,2.48c0.55,0.54,1.3,0.81,2.28,0.81c0.96,0,1.71-0.27,2.26-0.81
	c0.55-0.54,0.82-1.37,0.82-2.48v-7.94h1.64v7.92c0,1.04-0.21,1.92-0.63,2.64c-0.42,0.71-0.99,1.24-1.7,1.59
	c-0.71,0.35-1.51,0.52-2.4,0.52c-0.89,0-1.69-0.17-2.4-0.52c-0.71-0.35-1.28-0.88-1.69-1.59c-0.41-0.71-0.62-1.59-0.62-2.64v-7.92
	H79.37z"/>
</svg>
