<?xml version="1.0" encoding="UTF-8"?>
<!DOCTYPE svg PUBLIC "-//W3C//DTD SVG 1.1//EN" "http://www.w3.org/Graphics/SVG/1.1/DTD/svg11.dtd">
<!-- Creator: CorelDRAW 2020 -->
<svg xmlns="http://www.w3.org/2000/svg" xml:space="preserve" width="92.627mm" height="78.3768mm" version="1.1" style="shape-rendering:geometricPrecision; text-rendering:geometricPrecision; image-rendering:optimizeQuality; fill-rule:evenodd; clip-rule:evenodd"
viewBox="0 0 9262.7 7837.68"
 xmlns:xlink="http://www.w3.org/1999/xlink"
 xmlns:xodm="http://www.corel.com/coreldraw/odm/2003">
 <defs>
  <style type="text/css">
   <![CDATA[
    .fil0 {fill:none}
    .fil1 {fill:#FEFEFE}
    .fil2 {fill:#FEFEFE;fill-rule:nonzero}
   ]]>
  </style>
 </defs>
 <g id="Layer_x0020_1">
  <metadata id="CorelCorpID_0Corel-Layer"/>
  <rect class="fil0" x="-0" y="0" width="9262.7" height="7837.68"/>
  <g id="_998092488">
   <g>
    <path class="fil1" d="M7009.96 426.88c1023.56,89.34 1833.59,954.93 1833.59,2000.66 0,1104.63 -903.79,2008.42 -2008.42,2008.42l-1095.5 0c502.11,0 912.92,-410.81 912.92,-912.92 0,-502.1 -410.85,-912.91 -912.92,-912.91l-912.92 0 2183.25 -2183.25z"/>
    <path class="fil1" d="M4461.55 2975.29l1095.5 0c401.68,0 730.33,328.65 730.33,730.34 0,401.68 -328.65,730.33 -730.33,730.33l-365.17 0c200.84,0 365.17,-164.33 365.17,-365.17 0,-200.84 -164.39,-365.16 -365.17,-365.16l-1460.67 0 730.34 -730.34z"/>
   </g>
   <path class="fil2" d="M878.29 4665.49c133.45,0 250.08,26.45 349.89,79.35 99.79,52.9 177.04,127.15 231.74,222.74 54.71,95.58 82.06,205.89 82.06,330.94 0,123.85 -27.35,233.85 -82.06,330.04 -54.7,96.19 -132.26,170.74 -232.65,223.64 -100.4,52.9 -216.73,79.36 -348.98,79.36l-474.33 0 0 -1266.07 474.33 0zm-19.84 999.15c116.63,0 207.41,-31.86 272.34,-95.59 64.92,-63.72 97.39,-153.9 97.39,-270.53 0,-116.62 -32.47,-207.4 -97.39,-272.33 -64.93,-64.93 -155.71,-97.39 -272.34,-97.39l-146.08 0 0 735.84 146.08 0zm1502.34 266.92l-263.33 -477.93 -73.93 0 0 477.93 -308.4 0 0 -1266.07 517.61 0c99.79,0 184.86,17.43 255.19,52.3 70.34,34.86 122.94,82.66 157.81,143.39 34.86,60.7 52.3,128.34 52.3,202.89 0,84.16 -23.75,159.3 -71.24,225.43 -47.48,66.14 -117.52,113.02 -210.11,140.68l292.17 501.38 -348.07 0zm-337.26 -696.16l191.17 0c56.51,0 98.89,-13.83 127.15,-41.48 28.26,-27.65 42.38,-66.74 42.38,-117.23 0,-48.1 -14.12,-85.97 -42.38,-113.63 -28.26,-27.64 -70.64,-41.47 -127.15,-41.47l-191.17 0 0 313.81zm1175.89 -322.83l0 256.1 413 0 0 238.07 -413 0 0 277.74 467.11 0 0 247.08 -775.52 0 0 -1266.07 775.52 0 0 247.08 -467.11 0zm1219.17 93.78l-312 925.21 -322.83 0 458.09 -1266.07 357.09 0 458.1 1266.07 -326.44 0 -312.01 -925.21zm2211.12 -340.86l0 1266.07 -308.41 0 0 -759.29 -283.14 759.29 -248.9 0 -284.95 -761.09 0 761.09 -308.4 0 0 -1266.07 364.31 0 355.29 876.51 351.69 -876.51 362.51 0zm1307.55 0l-438.25 847.65 0 418.42 -308.4 0 0 -418.42 -438.26 -847.65 349.88 0 245.27 530.24 243.48 -530.24 346.28 0z"/>
   <path class="fil2" d="M2474.4 6156.33l0 795.35c0,111.81 27.37,194.78 82.07,248.88 54.7,54.1 130.76,81.16 228.15,81.16 96.18,0 171.63,-27.06 226.34,-81.16 54.7,-54.1 82.05,-137.07 82.05,-248.88l0 -795.35 164.13 0 0 793.54c0,104.61 -21.05,192.68 -63.12,264.21 -42.09,71.55 -98.9,124.75 -170.44,159.62 -71.54,34.87 -151.79,52.3 -240.78,52.3 -88.96,0 -169.23,-17.43 -240.76,-52.3 -71.54,-34.87 -128.05,-88.07 -169.53,-159.62 -41.48,-71.53 -62.23,-159.6 -62.23,-264.21l0 -793.54 164.12 0zm1718.76 1257.05l-299.38 -514.01 -198.38 0 0 514.01 -164.12 0 0 -1257.05 405.79 0c94.97,0 175.24,16.23 240.76,48.69 65.53,32.47 114.52,76.34 146.98,131.66 32.47,55.3 48.7,118.43 48.7,189.36 0,86.58 -24.95,162.92 -74.85,229.05 -49.89,66.14 -124.74,110.01 -224.53,131.66l315.61 526.63 -196.58 0zm-497.76 -645.67l241.67 0c88.97,0 155.69,-21.94 200.19,-65.82 44.49,-43.89 66.72,-102.5 66.72,-175.85 0,-74.54 -21.94,-132.26 -65.83,-173.13 -43.88,-40.88 -110.91,-61.32 -201.08,-61.32l-241.67 0 0 476.12zm1561.83 -1.8c45.69,7.22 87.47,25.86 125.35,55.92 37.87,30.05 67.93,67.33 90.17,111.8 22.24,44.49 33.37,91.99 33.37,142.49 0,63.72 -16.23,121.13 -48.69,172.23 -32.47,51.1 -79.67,91.38 -141.59,120.84 -61.91,29.46 -134.95,44.19 -219.13,44.19l-468.9 0 0 -1257.05 450.87 0c85.38,0 158.11,14.12 218.23,42.38 60.11,28.25 105.2,66.42 135.26,114.52 30.06,48.09 45.09,102.21 45.09,162.31 0,74.55 -20.14,136.17 -60.41,184.87 -40.29,48.69 -93.49,83.86 -159.62,105.5zm-465.3 -66.73l275.94 0c76.94,0 136.46,-18.03 178.55,-54.1 42.07,-36.08 63.12,-85.97 63.12,-149.69 0,-63.72 -21.05,-113.62 -63.12,-149.7 -42.09,-36.07 -102.81,-54.1 -182.17,-54.1l-272.32 0 0 407.59zm290.37 578.94c81.76,0 145.47,-19.25 191.16,-57.72 45.69,-38.47 68.54,-91.99 68.54,-160.52 0,-69.73 -24.05,-124.74 -72.14,-165.01 -48.1,-40.28 -112.43,-60.43 -192.98,-60.43l-284.95 0 0 443.68 290.37 0zm1119.97 -912.58l-375.13 1047.84 -173.13 0 454.49 -1249.84 189.36 0 452.68 1249.84 -173.14 0 -375.13 -1047.84zm1734.99 1047.84l-164.12 0 -660.08 -1000.96 0 1000.96 -164.12 0 0 -1258.85 164.12 0 660.08 999.14 0 -999.14 164.12 0 0 1258.85z"/>
  </g>
 </g>
</svg>
