<?xml version="1.0" encoding="UTF-8"?>
<!DOCTYPE svg PUBLIC "-//W3C//DTD SVG 1.1//EN" "http://www.w3.org/Graphics/SVG/1.1/DTD/svg11.dtd">
<!-- Creator: CorelDRAW 2020 -->
<svg xmlns="http://www.w3.org/2000/svg" xml:space="preserve" width="59.7894mm" height="59.7894mm" version="1.1" style="shape-rendering:geometricPrecision; text-rendering:geometricPrecision; image-rendering:optimizeQuality; fill-rule:evenodd; clip-rule:evenodd"
viewBox="0 0 5978.94 5978.94"
 xmlns:xlink="http://www.w3.org/1999/xlink"
 xmlns:xodm="http://www.corel.com/coreldraw/odm/2003">
 <defs>
  <style type="text/css">
   <![CDATA[
    .fil0 {fill:none}
    .fil1 {fill:#2B2A29}
   ]]>
  </style>
 </defs>
 <g id="Layer_x0020_1">
  <metadata id="CorelCorpID_0Corel-Layer"/>
  <rect class="fil0" x="-0" y="-0" width="5978.94" height="5978.94"/>
  <g id="_1003482152">
   <path class="fil1" d="M3712.05 984.93c1023.56,89.34 1833.59,954.93 1833.59,2000.66 0,1104.63 -903.79,2008.42 -2008.42,2008.42l-1095.5 0c502.11,0 912.92,-410.81 912.92,-912.92 0,-502.1 -410.85,-912.91 -912.92,-912.91l-912.92 0 2183.25 -2183.25z"/>
   <path class="fil1" d="M1163.64 3533.34l1095.5 0c401.68,0 730.33,328.65 730.33,730.34 0,401.68 -328.65,730.33 -730.33,730.33l-365.17 0c200.84,0 365.17,-164.33 365.17,-365.17 0,-200.84 -164.39,-365.16 -365.17,-365.16l-1460.67 0 730.34 -730.34z"/>
  </g>
 </g>
</svg>
